<svg xmlns="http://www.w3.org/2000/svg" viewBox="0 0 634.89 270.78"><defs><style>.cls-1{fill:#070707;}.cls-2{fill:#090909;}.cls-3{fill:#0a0a0a;}.cls-4{fill:#f1f1f1;}</style></defs><g id="レイヤー_2" data-name="レイヤー 2"><g id="レイヤー_1-2" data-name="レイヤー 1"><path class="cls-1" d="M136.05,3.5c-1,6.28-3.51,13.09-5.38,20.05C117.14,74.16,92.43,119.38,63.16,162.3c-11.86,17.4-27,32-42.92,45.68a33.67,33.67,0,0,1-13.39,7.39c-2.25.59-5,1.72-6.41-1-1.49-3,1.14-4.6,3.23-5.92,16.53-10.44,30-24.34,42.73-38.85C61.92,151.9,74.17,131.88,86,111.66c11-18.79,21.51-37.84,29.27-58.26,6.24-16.42,12-33,17-49.85.17-.59.48-1.15.64-1.74.32-1.25,1-2.08,2.37-1.73S136.09,1.68,136.05,3.5Z"/><path class="cls-1" d="M508.08,216.64c.73-21.22,9-39.91,19.18-58.07,5.73-10.25,13.65-18.84,20.22-28.44,3.69-5.38,7.3-10.8,8.42-17.44,1.52-9-3.73-15.78-12.81-16.08-9.4-.32-18.36,1.33-23.53,10.19-4.26,7.3-5.57,15.2-.08,22.82.68,1,1.3,1.94.23,3s-2.4.47-3.5,0c-6.08-2.68-10.29-12.08-8.34-19.34,3.57-13.28,13.42-19.71,26-22.71,6-1.43,11.84-.72,17.76,1.16,11.11,3.54,16.47,15.39,12.52,27.33-3,9-8.65,16-14.51,22.91a153.78,153.78,0,0,0-29,50.34,286.15,286.15,0,0,0-8.44,31.06c-.28,1.25-.33,3.24-2.13,3s-1.87-2.16-1.93-3.67C508,220.65,508.08,218.64,508.08,216.64Z"/><path class="cls-2" d="M389.9,207.09c-.29,3.9-.55,8.8-2.06,13.49-.72,2.22-1.82,4.53-4.71,3.69-2.65-.77-2.46-3.17-2-5.35,1.13-5.91,2.32-11.82,2-17.89-.24-4.09-1.25-7.93-4.27-10.93-.58-.57-1.21-1.48-2.17-1.14s-.7,1.5-.73,2.3a101.9,101.9,0,0,1-4.14,23.64c-.76,2.65-1.74,5.25-3.86,7.19-2.55,2.34-5.36,2.25-7.61-.2-8.85-9.62-5.76-32,6.06-37.49,5.47-2.56,6.08-5.84,6.17-10.48,0-1.23-.16-2.72,1.68-2.79a2,2,0,0,1,1.91,2.34c-1.28,6.72,2.87,9.95,7.53,13.57C388,190.42,390,198.3,389.9,207.09Zm-18.79-19c-10.4,3.77-13.86,19.16-6.69,29.17C368.37,207.88,370.22,198.3,371.11,188.12Z"/><path class="cls-2" d="M435.65,214.07c-3.74.18-7.31-.85-8.74-5.37-.49-1.51-1.48-.95-2.4-.88-3.46.25-7,.43-8.87-3.27-2.09-4.15-.83-8.15,1.53-11.71,2.1-3.18,5.11-4.76,9.06-3.2.71.28,1.42.45,1.91-.42s-.31-8.7-.9-9.24c-.75-.7-1.4-.1-2,.22a77.7,77.7,0,0,0-11.14,7c-1.19.91-2.42,2.15-3.89.51s-.62-3.06.55-4.33a37,37,0,0,1,12.72-8.51c2.49-1.07,3.06-2.43,2.45-4.86-.75-3-1.27-6.09-2-9.12-.35-1.54,0-2.91,1.42-3.48,2-.79,2.28,1.14,2.67,2.28a82.82,82.82,0,0,1,2.58,9c.48,2.18,1.4,2.64,3.31,1.66.77-.4,1.66-.58,2.44-1a2,2,0,0,1,2.68.53,2.27,2.27,0,0,1-.11,3.09c-.38.48-.84,1.13-1.36,1.24-5.52,1.16-4.57,5-3.85,8.87a49.3,49.3,0,0,1-.46,20.13c-.77,3.39,3,6.08,6.76,4.7,2.57-.94,5-2.3,6-5.23.63-1.9,1.72-3.71,4-2.9,2.55.9,2,3.26,1.4,5.15C449.77,210.58,443.78,214.11,435.65,214.07Zm-8.84-15.64c0-3.84-1-5.38-3.12-5.48s-4.35,3.22-4.43,6.52c-.05,2.22.84,3.33,3.1,3.12C425.15,202.34,427.78,201.87,426.81,198.43Z"/><path class="cls-3" d="M256.68,85.07A48.11,48.11,0,0,1,255.63,98c-.36,1.65-.53,3.78-2.88,3.81s-2.39-2-2.58-3.53c-.28-2.12-1.24-2.73-3.25-2.3-3.92.83-7.86,1.57-11.79,2.35-1.23.24-2.45.51-3.68.74-1.47.27-3,.14-3.43-1.48s.91-2.38,2.28-2.86a84.77,84.77,0,0,1,15.91-4.26c2.41-.34,3.54-1,3.21-3.74a37.7,37.7,0,0,1,0-7.51c.15-2-.62-2.56-2.55-2.54-4.42,0-8.77.28-12.92,1.94-1.31.53-2.79,1.24-3.64-.39s.47-2.8,1.78-3.61a27.22,27.22,0,0,1,13.6-3.77c2.86-.08,3.52-1,3.22-3.78-.93-8.8-5.45-14.59-12.31-14.54-5,0-9.2,2.91-13.21,5.71a23.29,23.29,0,0,0-2.53,2.24c-.7.67-1.45,1.1-2.29.33s-.37-1.5.05-2.35c2.73-5.6,13.35-11.36,19.95-10.76,7.4.68,13.53,6,15.72,13.69a26.91,26.91,0,0,1,.78,3.67A133.73,133.73,0,0,1,256.68,85.07Z"/><path class="cls-2" d="M324.35,217.2c-.66,12-.73,23.4-3.84,34.51-.9,3.23-2.21,5.66-5.82,5.8-2.43.1-5.65-3.86-6-6.94-.15-1.35.57-1.92,1.71-1.81,2.44.22,2.92-1.45,3.28-3.2,2.87-13.95,3.4-28.06,2.84-42.24-.47-11.64-.86-23.29-2.6-34.84a27,27,0,0,1-.16-3.37c0-1.11-.25-2.48,1.2-2.76s1.92,1,2.3,2.05a85.36,85.36,0,0,1,4,16.75A288.62,288.62,0,0,1,324.35,217.2Z"/><path class="cls-3" d="M254.26,188.62c4.17-1.87,5.06.27,5.57,3,1.77,9.5,2.23,19.13,2.71,28.76a6.61,6.61,0,0,1-.43,2.2c-.44,1.43-1.43,2.62-2.92,2.49s-2-1.56-2.1-3.08c-.82-10.88-1.5-21.76-1.52-32.67a7.68,7.68,0,0,0-.16-1.1c-1.57-.3-1.88,1.07-2.51,1.84-3.29,3.95-6.43,8-10.74,11a24.06,24.06,0,0,1-4.24,2.35c-1.31.55-2.79.65-3.69-.82s-.33-2.65.8-3.67c2-1.74,4.11-3.32,5.94-5.21,10.68-11,20-23.06,26.74-37,1.69-3.52,2.44-7.34,3.7-11,.54-1.57.63-4.09,2.95-3.53s1.19,3,.94,4.54A65.65,65.65,0,0,1,265,172.64C261.6,177.73,258.18,182.77,254.26,188.62Z"/><path class="cls-2" d="M324.8,87.46c-3,.07-9.33-4.79-10.32-7.93s.64-6.45,4.33-9.19c1.54-1.14,4.49-1.13,4.5-3.42a73.37,73.37,0,0,0-1.24-10.8c-.2-1.37-1.28-.91-2-.63-2.22.83-4.4,1.78-6.62,2.6-1,.38-2.24.81-2.94-.6-.57-1.16.25-1.91,1-2.55a17.81,17.81,0,0,1,6.86-3.69c2-.56,2.84-1.52,2.37-3.73a31.79,31.79,0,0,1-.36-5.62c0-.72,0-1.56,1-1.82a1.69,1.69,0,0,1,2.11,1.14,24.65,24.65,0,0,1,1.67,5.34c.33,2.44,1.47,2.77,3.58,2.22a24.39,24.39,0,0,1,4.46-.55,2.21,2.21,0,0,1,2.45,1.87c.32,1.33-.52,2.11-1.59,2.66a8.85,8.85,0,0,1-1.07.31c-1.82.69-5.26-.07-5.37,1.42-.25,3.39.74,6.91,1.51,10.32.29,1.26,1.49.27,2.21.08,2.05-.52,4-1.49,6.17-1.45,1.69,0,3,.77,3.25,2.52.2,1.59-.88,2.46-2.34,3-2.67.92-6.68.16-7.8,2.73-1,2.3.45,5.6.56,8.47C331.26,84.45,328.65,87.37,324.8,87.46Zm.51-8.79c-.82-1.43.55-4.39-1.79-4.65-1.81-.2-4.4,1.57-4.31,3.85s2.68,3.72,4.75,4S324.91,80,325.31,78.67Z"/><path class="cls-2" d="M169.09,80.17c-.36,9.24-4.42,17.91-8.47,26.5-2.4,5.08-5.48,9.84-8.37,14.68-1.24,2.06-2.91,4.46-5.64,2.75-3-1.86-1-4.14.4-6.08,6.12-8.63,10.81-18,15.08-27.66a37.62,37.62,0,0,0,2.24-7.54c.88-4.31-1.3-6.28-5.42-5A92.91,92.91,0,0,0,135,89.3c-1,.67-2,2.09-3.45.31a3,3,0,0,1,.1-4.34,21.16,21.16,0,0,1,5.62-4.34,66.7,66.7,0,0,1,23.94-8.34C167.56,71.67,169.17,73.32,169.09,80.17Z"/><path class="cls-3" d="M326.37,141.86c-.37,2.76-2.56,3.6-4.66,4.41a201.33,201.33,0,0,0-31.65,16.21c-6.95,4.23-13.69,8.82-19.35,14.78-.74.78-1.45,2-2.81,1.11s-1-2.29-.47-3.35a25.92,25.92,0,0,1,3.14-4.64A58.83,58.83,0,0,1,281.25,161a173.32,173.32,0,0,1,37.53-21,13,13,0,0,1,4-1A3.18,3.18,0,0,1,326.37,141.86Z"/><path class="cls-2" d="M506.56,270.78c-7.55-.14-12.09-4.47-12-11.4.12-6.74,5-10.5,13.31-10.3,6,.14,10,4.5,9.87,10.82C517.65,266.39,513,270.91,506.56,270.78Zm-1.82-6.3c3.61-.05,5.7-2.54,5.86-6.69.1-2.46-1-3.38-3.32-3.35-4.58.06-7.52,2.25-7.3,5.65C500.18,263,501.51,264.79,504.74,264.48Z"/><path class="cls-2" d="M301.24,201.55c.34,2.08-1.1,4.58-1.69,7.24-.31,1.38-1.65,1.86-2.82,2.22-3.69,1.12-7.64.88-11.32,2.21-1.36.49-2.21-.71-2.75-2a44.32,44.32,0,0,1-3.57-14.81c-.09-1.48.12-2.83,2.13-2.71.93.06,1.2-.79,1.74-1.25,3.68-3.14,7.86-4.65,12.46-2.64S301,196.19,301.24,201.55Zm-6.67-.63c-.39-1.88.12-4.76-2.75-5.93-2.7-1.1-5,.47-7.39,1.56a1.27,1.27,0,0,0-.71,1.81c.83,2.59,1.67,5.17,2.57,7.74.18.53.36,1.13,1.16,1.24C290.82,207.79,294.48,204.77,294.57,200.92Z"/><path class="cls-3" d="M186.51,42.85a43,43,0,0,1-12.24-2.7C162.85,35.66,153,28.94,145.66,19c-.22-.31-.44-.61-.65-.92-.75-1.06-1.56-2.41-.49-3.38,1.28-1.16,2.23.3,3.06,1.16a85.74,85.74,0,0,0,11.69,10.59c7.45,5.28,16,7.65,24.81,9.15a26.77,26.77,0,0,1,3.32.68A3.3,3.3,0,0,1,190,39.86,3.41,3.41,0,0,1,186.51,42.85Z"/><path class="cls-3" d="M221.94,101c-.06,1.91-.87,3.06-2.64,3.28a2.85,2.85,0,0,1-3.31-2.42c-.69-3-1.26-6.14-1.67-9.25a108.45,108.45,0,0,1,0-27.77c.15-1.17-.26-3,1.41-3,1.83,0,1.57,1.87,1.76,3.19,1.5,10.67,1.53,21.52,3.63,32.12C221.34,98.52,221.67,99.85,221.94,101Z"/><path class="cls-3" d="M301.31,82.57c-.42,2.33,1.08,5.45-2.16,5.9s-2.9-2.93-3.28-4.88a86,86,0,0,1-1-27.63c.19-1.5-.1-3.41,2-3.34,1.74.06,1.74,2,1.77,3.28A208,208,0,0,0,301.31,82.57Z"/><path class="cls-3" d="M624.2,53.38a4.18,4.18,0,0,1-2.05,3.39c-5.29,3.77-10.59,7.52-15.94,11.2-.73.5-1.64,1.31-2.71.45a2.23,2.23,0,0,1-.41-3.07,36.6,36.6,0,0,1,17.08-14.57A2.85,2.85,0,0,1,624.2,53.38Z"/><path class="cls-3" d="M573.39,44.61c.52-4.57,2.75-8.35,5-12.12,1.09-1.82,2.26-3.6,3.49-5.33,1.06-1.5,2.36-2.85,4.36-1.54s1.48,3,.58,4.65q-2.35,4.26-4.88,8.42c-1.48,2.46-3,4.9-4.63,7.25-.6.87-1.4,2-2.73,1.51S573.5,45.62,573.39,44.61Z"/><path class="cls-3" d="M155.84,55c1.85-.16,2.88.23,3.25,1.5a2.15,2.15,0,0,1-1.41,2.74c-7.62,2.59-14.46,6.68-21.26,10.86a2,2,0,0,1-3-.54,2.52,2.52,0,0,1,.66-3.65,75,75,0,0,1,7.8-5.09A71.67,71.67,0,0,1,155.84,55Z"/><path class="cls-3" d="M618.17,102.52c-1.81-.09-3.93-.15-6-.33-.88-.07-2-.44-2-1.36s.92-1.52,1.73-1.77A38.73,38.73,0,0,1,618,97.44c4.45-.64,8.93-1.1,13.41-1.57,1.55-.16,3.14,0,3.48,1.95s-1.16,2.7-2.6,3.13C627.76,102.29,623.1,102.12,618.17,102.52Z"/><path class="cls-3" d="M447.61,172.67c.05-1.26.13-2.73,1.91-3s2.47.73,3,2.21c1,3.07,2.18,6.09,3.12,9.18.51,1.67.32,3.38-1.65,4s-3.1-.65-3.85-2.16A25.8,25.8,0,0,1,447.61,172.67Z"/><path class="cls-4" d="M371.11,188.12c-.89,10.18-2.74,19.76-6.69,29.17C357.25,207.28,360.71,191.89,371.11,188.12Z"/><path class="cls-4" d="M426.81,198.43c1,3.44-1.66,3.91-4.45,4.16-2.26.21-3.15-.9-3.1-3.12.08-3.3,2.26-6.62,4.43-6.52S426.79,194.59,426.81,198.43Z"/><path class="cls-4" d="M325.31,78.67c-.4,1.33.8,3.55-1.35,3.23s-4.65-1.64-4.75-4,2.5-4.05,4.31-3.85C325.86,74.28,324.49,77.24,325.31,78.67Z"/><path class="cls-4" d="M504.75,264.47c-3.24.32-4.57-1.5-4.77-4.38-.22-3.4,2.72-5.59,7.3-5.65,2.31,0,3.42.89,3.32,3.35C510.44,261.94,508.35,264.43,504.75,264.47Z"/><path class="cls-4" d="M294.57,200.92c-.09,3.85-3.75,6.87-7.12,6.42-.8-.11-1-.71-1.16-1.24-.9-2.57-1.74-5.15-2.57-7.74a1.27,1.27,0,0,1,.71-1.81c2.36-1.09,4.69-2.66,7.39-1.56C294.69,196.16,294.18,199,294.57,200.92Z"/></g></g></svg>